<svg xmlns="http://www.w3.org/2000/svg" width="120" height="31" viewBox="0 0 149 31" fill="none" aria-label="Noofvae" role="img">
    <path d="M0.28 30V28.8L4.12 28.16H5.96L9.68 28.8V30H0.28ZM2.76 30C2.81333 29.36 2.84 28.5467 2.84 27.56C2.86667 26.5733 2.88 25.5467 2.88 24.48C2.90667 23.3867 2.92 22.4267 2.92 21.6V19.76C2.92 18.9867 2.90667 18.32 2.88 17.76C2.88 17.2 2.86667 16.6667 2.84 16.16C2.84 15.6533 2.82667 15.1333 2.8 14.6L0.08 14.08V13L6.52 10.8L7.04 11.16L7.28 15.4V15.44V21.6C7.28 22.4267 7.28 23.3867 7.28 24.48C7.30667 25.5467 7.32 26.5733 7.32 27.56C7.34667 28.5467 7.38667 29.36 7.44 30H2.76ZM12.08 30V28.8L15.88 28.16H17.68L21.44 28.8V30H12.08ZM14.48 30C14.5333 29.36 14.56 28.5467 14.56 27.56C14.5867 26.5733 14.6 25.5467 14.6 24.48C14.6267 23.4133 14.64 22.4533 14.64 21.6V17.72C14.64 16.1733 14.4133 15.12 13.96 14.56C13.5333 13.9733 12.8267 13.68 11.84 13.68C11.2533 13.68 10.6667 13.7867 10.08 14C9.49333 14.2133 8.90667 14.5333 8.32 14.96C7.73333 15.36 7.13333 15.8667 6.52 16.48L6.24 15.08H6.64C7.30667 14.2 8.01333 13.44 8.76 12.8C9.53333 12.16 10.3467 11.6667 11.2 11.32C12.08 10.9733 12.9733 10.8 13.88 10.8C15.5067 10.8 16.76 11.3333 17.64 12.4C18.5467 13.44 19 15.1333 19 17.48V21.6C19 22.4533 19 23.4133 19 24.48C19.0267 25.5467 19.04 26.5733 19.04 27.56C19.0667 28.5467 19.1067 29.36 19.16 30H14.48ZM35.1966 30.56C33.4366 30.56 31.8632 30.1733 30.4766 29.4C29.1166 28.6267 28.0232 27.5067 27.1966 26.04C26.3966 24.5467 25.9966 22.7733 25.9966 20.72C25.9966 18.64 26.4099 16.8667 27.2366 15.4C28.0899 13.9067 29.2099 12.7733 30.5966 12C31.9832 11.2 33.5166 10.8 35.1966 10.8C36.9032 10.8 38.4366 11.1867 39.7966 11.96C41.1832 12.7333 42.2899 13.8533 43.1166 15.32C43.9432 16.7867 44.3566 18.56 44.3566 20.64C44.3566 22.72 43.9432 24.5067 43.1166 26C42.2899 27.4667 41.1832 28.6 39.7966 29.4C38.4099 30.1733 36.8766 30.56 35.1966 30.56ZM35.1966 29.12C36.1299 29.12 36.9299 28.8133 37.5966 28.2C38.2632 27.5867 38.7699 26.6667 39.1166 25.44C39.4632 24.1867 39.6366 22.6 39.6366 20.68C39.6366 18.7333 39.4632 17.1467 39.1166 15.92C38.7699 14.6667 38.2632 13.7467 37.5966 13.16C36.9299 12.5467 36.1299 12.24 35.1966 12.24C34.2366 12.24 33.4232 12.5467 32.7566 13.16C32.0899 13.7467 31.5832 14.6667 31.2366 15.92C30.8899 17.1733 30.7166 18.7733 30.7166 20.72C30.7166 22.64 30.8899 24.2267 31.2366 25.48C31.5832 26.7067 32.0899 27.6267 32.7566 28.24C33.4232 28.8267 34.2366 29.12 35.1966 29.12ZM58.8372 30.56C57.0772 30.56 55.5039 30.1733 54.1172 29.4C52.7572 28.6267 51.6639 27.5067 50.8372 26.04C50.0372 24.5467 49.6372 22.7733 49.6372 20.72C49.6372 18.64 50.0505 16.8667 50.8772 15.4C51.7305 13.9067 52.8505 12.7733 54.2372 12C55.6239 11.2 57.1572 10.8 58.8372 10.8C60.5439 10.8 62.0772 11.1867 63.4372 11.96C64.8239 12.7333 65.9305 13.8533 66.7572 15.32C67.5839 16.7867 67.9972 18.56 67.9972 20.64C67.9972 22.72 67.5839 24.5067 66.7572 26C65.9305 27.4667 64.8239 28.6 63.4372 29.4C62.0505 30.1733 60.5172 30.56 58.8372 30.56ZM58.8372 29.12C59.7705 29.12 60.5705 28.8133 61.2372 28.2C61.9039 27.5867 62.4105 26.6667 62.7572 25.44C63.1039 24.1867 63.2772 22.6 63.2772 20.68C63.2772 18.7333 63.1039 17.1467 62.7572 15.92C62.4105 14.6667 61.9039 13.7467 61.2372 13.16C60.5705 12.5467 59.7705 12.24 58.8372 12.24C57.8772 12.24 57.0639 12.5467 56.3972 13.16C55.7305 13.7467 55.2239 14.6667 54.8772 15.92C54.5305 17.1733 54.3572 18.7733 54.3572 20.72C54.3572 22.64 54.5305 24.2267 54.8772 25.48C55.2239 26.7067 55.7305 27.6267 56.3972 28.24C57.0639 28.8267 57.8772 29.12 58.8372 29.12ZM72.6472 30V28.8L76.5672 28.16H78.8472L83.1272 28.8V30H72.6472ZM75.1672 30C75.2205 29.2 75.2472 28.32 75.2472 27.36C75.2739 26.4 75.2872 25.4267 75.2872 24.44C75.3139 23.4267 75.3272 22.48 75.3272 21.6V13.08H72.4472V11.68L76.6072 11.04L75.3272 12.08L75.4072 11.32C75.5139 9.82667 75.7005 8.53333 75.9672 7.44C76.2339 6.32 76.5939 5.34667 77.0472 4.52C77.5005 3.66667 78.0872 2.92 78.8072 2.28C79.5805 1.53333 80.4339 0.999999 81.3672 0.679998C82.3272 0.333331 83.2872 0.159998 84.2472 0.159998C85.1805 0.159998 86.0339 0.346665 86.8072 0.719998C87.6072 1.09333 88.1139 1.69333 88.3272 2.52C88.3005 3.08 88.0605 3.54667 87.6072 3.92C87.1805 4.26666 86.6205 4.44 85.9272 4.44C85.3672 4.44 84.8472 4.30666 84.3672 4.04C83.8872 3.74667 83.3805 3.26667 82.8472 2.6L81.4872 1.2V0.879998H83.5272V1.16C83.1005 1.21333 82.6872 1.34667 82.2872 1.56C81.9139 1.74666 81.5405 2.12 81.1672 2.68C80.8472 3.16 80.5805 3.69333 80.3672 4.28C80.1539 4.86667 79.9805 5.53333 79.8472 6.28C79.7139 7.02667 79.6339 7.90667 79.6072 8.92C79.5805 9.93333 79.6072 11.1067 79.6872 12.44V21.6C79.6872 22.48 79.6872 23.4267 79.6872 24.44C79.7139 25.4267 79.7272 26.4 79.7272 27.36C79.7539 28.32 79.7939 29.2 79.8472 30H75.1672ZM77.4872 13.08V11.32H84.4072V13.08H77.4872ZM96.4697 30.12L88.7897 11.32H93.6697L99.1897 26.08H98.4297L98.5897 25.56L103.63 11.32H105.47L98.3897 30.12H96.4697ZM87.4697 12.52V11.32H97.3097V12.52L93.3097 13.16H90.9497L87.4697 12.52ZM100.27 12.52V11.32H106.99V12.52L104.27 13.04H103.63L100.27 12.52ZM115.128 30.56C113.688 30.56 112.488 30.1467 111.528 29.32C110.568 28.4933 110.088 27.3067 110.088 25.76C110.088 24.9067 110.275 24.12 110.648 23.4C111.022 22.68 111.688 22 112.648 21.36C113.635 20.72 115.035 20.1333 116.848 19.6C117.435 19.44 118.048 19.2667 118.688 19.08C119.328 18.8933 119.995 18.7067 120.688 18.52C121.408 18.3067 122.155 18.1067 122.928 17.92V19.08C121.888 19.3733 120.942 19.6533 120.088 19.92C119.262 20.1867 118.555 20.44 117.968 20.68C116.982 21.0267 116.235 21.4267 115.728 21.88C115.222 22.3333 114.862 22.8133 114.648 23.32C114.462 23.8267 114.368 24.3733 114.368 24.96C114.368 26 114.635 26.76 115.168 27.24C115.702 27.6933 116.368 27.92 117.168 27.92C117.622 27.92 118.048 27.8533 118.448 27.72C118.875 27.5867 119.355 27.3467 119.888 27C120.422 26.6533 121.088 26.1467 121.888 25.48L122.288 27.28H120.968C120.328 28.0267 119.715 28.64 119.128 29.12C118.542 29.6 117.928 29.96 117.288 30.2C116.648 30.44 115.928 30.56 115.128 30.56ZM124.448 30.44C123.248 30.44 122.328 30.12 121.688 29.48C121.048 28.84 120.688 27.9733 120.608 26.88V26.72V17.24C120.608 15.96 120.488 14.9733 120.248 14.28C120.035 13.56 119.675 13.0533 119.168 12.76C118.688 12.4667 118.022 12.32 117.168 12.32C116.715 12.32 116.235 12.3733 115.728 12.48C115.222 12.56 114.648 12.7067 114.008 12.92L115.688 11.76L115.088 14.84C114.982 15.7467 114.715 16.4133 114.288 16.84C113.862 17.24 113.355 17.44 112.768 17.44C112.182 17.44 111.715 17.2933 111.368 17C111.048 16.7067 110.835 16.28 110.728 15.72C110.968 14.2267 111.782 13.04 113.168 12.16C114.582 11.2533 116.395 10.8 118.608 10.8C120.075 10.8 121.262 11.04 122.168 11.52C123.102 11.9733 123.795 12.72 124.248 13.76C124.702 14.7733 124.928 16.0933 124.928 17.72V26.56C124.928 27.2 125.022 27.6533 125.208 27.92C125.422 28.1867 125.702 28.32 126.048 28.32C126.342 28.32 126.595 28.2533 126.808 28.12C127.022 27.96 127.262 27.72 127.528 27.4L128.248 27.96C127.848 28.7867 127.342 29.4133 126.728 29.84C126.115 30.24 125.355 30.44 124.448 30.44ZM140.936 30.56C139.176 30.56 137.603 30.1867 136.216 29.44C134.856 28.6667 133.789 27.5733 133.016 26.16C132.243 24.72 131.856 22.9867 131.856 20.96C131.856 18.8533 132.256 17.04 133.056 15.52C133.883 14 134.976 12.84 136.336 12.04C137.696 11.2133 139.176 10.8 140.776 10.8C142.269 10.8 143.576 11.12 144.696 11.76C145.816 12.3733 146.683 13.24 147.296 14.36C147.936 15.4533 148.256 16.76 148.256 18.28C148.256 18.7067 148.229 19.08 148.176 19.4C148.149 19.72 148.096 20.0267 148.016 20.32H133.656V18.92H141.736C142.723 18.92 143.376 18.7333 143.696 18.36C144.043 17.9867 144.216 17.4 144.216 16.6C144.216 15.64 144.069 14.84 143.776 14.2C143.509 13.5333 143.123 13.04 142.616 12.72C142.109 12.4 141.509 12.24 140.816 12.24C140.069 12.24 139.349 12.4933 138.656 13C137.989 13.5067 137.443 14.3467 137.016 15.52C136.589 16.6667 136.376 18.2267 136.376 20.2C136.376 21.8267 136.629 23.2133 137.136 24.36C137.669 25.48 138.389 26.3333 139.296 26.92C140.229 27.48 141.283 27.76 142.456 27.76C143.549 27.76 144.509 27.56 145.336 27.16C146.189 26.7333 146.936 26.1333 147.576 25.36L148.416 26C147.909 26.9867 147.296 27.8267 146.576 28.52C145.856 29.1867 145.029 29.6933 144.096 30.04C143.163 30.3867 142.109 30.56 140.936 30.56Z" fill="black"></path>
</svg>